<svg xmlns="http://www.w3.org/2000/svg" width="720" height="460" viewBox="0 0 720 460" role="img" aria-label="Night desk with laptop">
  <defs>
    <linearGradient id="bg" x1="0" y1="0" x2="1" y2="1">
      <stop offset="0" stop-color="#12263b"/>
      <stop offset="0.55" stop-color="#081522"/>
      <stop offset="1" stop-color="#251b16"/>
    </linearGradient>
    <radialGradient id="lampGlow" cx="58%" cy="20%" r="42%">
      <stop offset="0" stop-color="#ffd389" stop-opacity="0.56"/>
      <stop offset="0.45" stop-color="#e5a55e" stop-opacity="0.2"/>
      <stop offset="1" stop-color="#e5a55e" stop-opacity="0"/>
    </radialGradient>
    <radialGradient id="screenGlow" cx="52%" cy="54%" r="38%">
      <stop offset="0" stop-color="#7eb6ff" stop-opacity="0.26"/>
      <stop offset="1" stop-color="#7eb6ff" stop-opacity="0"/>
    </radialGradient>
    <filter id="soft">
      <feGaussianBlur stdDeviation="10"/>
    </filter>
  </defs>

  <rect width="720" height="460" fill="url(#bg)"/>
  <rect width="720" height="460" fill="url(#lampGlow)"/>
  <rect width="720" height="460" fill="url(#screenGlow)"/>

  <g opacity="0.5" filter="url(#soft)">
    <circle cx="140" cy="86" r="18" fill="#7eb6ff"/>
    <circle cx="172" cy="134" r="8" fill="#ffd389"/>
    <circle cx="606" cy="94" r="12" fill="#ffd389"/>
    <circle cx="628" cy="150" r="5" fill="#7eb6ff"/>
  </g>

  <g transform="translate(440 70)">
    <path d="M0 64 C36 34 84 34 120 64" fill="none" stroke="#f4c879" stroke-width="8" stroke-linecap="round"/>
    <path d="M60 62 v96" stroke="#816544" stroke-width="8" stroke-linecap="round"/>
    <ellipse cx="60" cy="62" rx="76" ry="18" fill="#f0be73"/>
    <ellipse cx="60" cy="68" rx="70" ry="13" fill="#6b452d" opacity="0.42"/>
  </g>

  <g transform="translate(136 170)">
    <rect x="92" y="28" width="308" height="174" rx="12" fill="#0a111d" stroke="#4c6b8c" stroke-opacity="0.55" stroke-width="3"/>
    <rect x="112" y="48" width="268" height="130" rx="6" fill="#0f2238"/>
    <g opacity="0.72">
      <rect x="134" y="70" width="78" height="8" rx="4" fill="#75a7dd"/>
      <rect x="134" y="94" width="154" height="6" rx="3" fill="#d6e4f2" opacity="0.45"/>
      <rect x="134" y="116" width="122" height="6" rx="3" fill="#e4a85f" opacity="0.65"/>
      <rect x="134" y="138" width="192" height="6" rx="3" fill="#d6e4f2" opacity="0.38"/>
      <rect x="292" y="94" width="52" height="6" rx="3" fill="#7ed7d1" opacity="0.54"/>
      <rect x="282" y="116" width="70" height="6" rx="3" fill="#75a7dd" opacity="0.6"/>
    </g>
    <path d="M54 224 h386 l48 40 H8 Z" fill="#111b29" stroke="#40566f" stroke-opacity="0.5" stroke-width="2"/>
    <path d="M158 238 h174 l18 12 H138 Z" fill="#27384b"/>
    <ellipse cx="40" cy="236" rx="58" ry="18" fill="#17100d" opacity="0.9"/>
    <path d="M2 210 h78 v36 H2 Z" fill="#36261f"/>
    <ellipse cx="41" cy="210" rx="40" ry="12" fill="#5e4634"/>
  </g>

  <rect y="340" width="720" height="120" fill="#050b13" opacity="0.5"/>
  <path d="M0 360 C112 340 210 366 332 346 C472 324 574 356 720 334 V460 H0 Z" fill="#020712" opacity="0.48"/>
</svg>
